<svg xmlns="http://www.w3.org/2000/svg" viewBox="0 0 39.434 40.142">
  <g>
    <g>
      <path d="M32.107,39.132s-1.645.01-1.645-1.353a1.478,1.478,0,0,0-1.644-1.393s-1.644-.008-1.644,1.359a1.48,1.48,0,0,1-1.644,1.4" fill="none" stroke="#010101" stroke-linecap="round" stroke-miterlimit="10" stroke-width="1.5"/>
      <path d="M38.684,39.132s-1.645.01-1.645-1.353A1.478,1.478,0,0,0,35.4,36.386s-1.644-.008-1.644,1.359a1.481,1.481,0,0,1-1.644,1.4" fill="none" stroke="#010101" stroke-linecap="round" stroke-miterlimit="10" stroke-width="1.5"/>
    </g>
    <g>
      <path d="M32.107,34.666s-1.645.01-1.645-1.354a1.478,1.478,0,0,0-1.644-1.392s-1.644-.009-1.644,1.359a1.48,1.48,0,0,1-1.644,1.4" fill="none" stroke="#010101" stroke-linecap="round" stroke-miterlimit="10" stroke-width="1.5"/>
      <path d="M38.684,34.666s-1.645.01-1.645-1.354A1.478,1.478,0,0,0,35.4,31.92s-1.644-.009-1.644,1.359a1.481,1.481,0,0,1-1.644,1.4" fill="none" stroke="#010101" stroke-linecap="round" stroke-miterlimit="10" stroke-width="1.5"/>
    </g>
    <g>
      <polyline points="15.496 39.142 15.496 28.825 7.94 19.068" fill="none" stroke="#fff" stroke-linecap="round" stroke-miterlimit="10" stroke-width="2"/>
      <polyline points="15.496 39.142 15.496 28.825 7.94 19.068" fill="none" stroke="#231f20" stroke-linecap="round" stroke-miterlimit="10" stroke-width="1.5"/>
    </g>
    <g>
      <polyline points="20.437 39.142 20.437 28.96 25.475 23.776" fill="none" stroke="#fff" stroke-linecap="round" stroke-miterlimit="10" stroke-width="2"/>
      <polyline points="20.437 39.142 20.437 28.96 25.475 23.776" fill="none" stroke="#231f20" stroke-linecap="round" stroke-miterlimit="10" stroke-width="1.5"/>
    </g>
    <g>
      <line x1="17.121" y1="25.521" x2="12.195" y2="19.491" fill="none" stroke="#fff" stroke-linecap="round" stroke-miterlimit="10" stroke-width="2"/>
      <line x1="17.121" y1="25.521" x2="12.195" y2="19.491" fill="#fff"/>
      <line x1="17.121" y1="25.521" x2="12.195" y2="19.491" fill="none" stroke="#231f20" stroke-linecap="round" stroke-miterlimit="10" stroke-width="1.5"/>
    </g>
    <g>
      <line x1="20.02" y1="25.521" x2="24.763" y2="20.911" fill="none" stroke="#fff" stroke-linecap="round" stroke-miterlimit="10" stroke-width="2"/>
      <line x1="20.02" y1="25.521" x2="24.763" y2="20.911" fill="#fff"/>
      <line x1="20.02" y1="25.521" x2="24.763" y2="20.911" fill="none" stroke="#231f20" stroke-linecap="round" stroke-miterlimit="10" stroke-width="1.5"/>
    </g>
    <path d="M27.883,24.932c4.287,1.507,8.016-1.854,5.021-5.441,0-.239.143.124.1-.11A5.537,5.537,0,0,0,37.039,13.6c0-3.608-3.571-6.539-7.976-6.539a9.66,9.66,0,0,0-1.1.072A11.782,11.782,0,0,0,17.337.75C10.86.75,5.61,5.684,5.61,11.77a10.29,10.29,0,0,0,.073,1.2C2.788,13.954.75,16.29.75,19.017c0,3.377,3.451,9.2,8.523,5.758" fill="none" stroke="#010101" stroke-linecap="round" stroke-linejoin="round" stroke-width="1.5"/>
  </g>
</svg>
