<svg xmlns="http://www.w3.org/2000/svg" viewBox="0 0 32.03 36.232">
  <g>
    <path d="M13.435,7.557C16.6-4.447,37.3-.484,29.559,18.733,19.574,43.226,7.747,35.841,9.843,27.85" fill="none" stroke="#010101" stroke-linecap="round" stroke-linejoin="round" stroke-width="1.5"/>
    <path d="M19.579,13.288c3.037,4.79,5.062,9.266.956,11.12-.956.392-1.969.282-3,.8-1.05.494-1.245.907-2.49,2.247C13.293,28.87,11.1,26.4,12.337,24.935c2.1-2.324,4.413-2.687,3.194-4.933-.834-1.508-.278-3.614,2.395-2.844" fill="none" stroke="#010101" stroke-linecap="round" stroke-linejoin="round" stroke-width="1.5"/>
    <path d="M15.869,10.508C18.589-.355,32.862,3.488,26.3,18.116" fill="none" stroke="#010101" stroke-linecap="round" stroke-linejoin="round" stroke-width="1.5"/>
    <polyline points="9.997 10.212 7.789 8.068 9.618 7.204 6.844 4.51" fill="none" stroke="#010101" stroke-linecap="round" stroke-linejoin="round" stroke-width="1.5"/>
    <polyline points="0.75 20.747 3.746 20.042 3.488 22.049 7.252 21.163" fill="none" stroke="#010101" stroke-linecap="round" stroke-linejoin="round" stroke-width="1.5"/>
    <polyline points="7.503 14.19 4.539 13.363 4.713 15.378 0.99 14.338" fill="none" stroke="#010101" stroke-linecap="round" stroke-linejoin="round" stroke-width="1.5"/>
  </g>
</svg>
