<?xml version="1.0" encoding="UTF-8" standalone="no"?>
<svg
   xmlns:dc="http://purl.org/dc/elements/1.1/"
   xmlns:cc="http://creativecommons.org/ns#"
   xmlns:rdf="http://www.w3.org/1999/02/22-rdf-syntax-ns#"
   xmlns:svg="http://www.w3.org/2000/svg"
   xmlns="http://www.w3.org/2000/svg"
   xmlns:sodipodi="http://sodipodi.sourceforge.net/DTD/sodipodi-0.dtd"
   xmlns:inkscape="http://www.inkscape.org/namespaces/inkscape"
   width="210mm"
   height="297mm"
   viewBox="0 0 210 297"
   version="1.1"
   id="svg8"
   inkscape:version="1.0.1 (c497b03c, 2020-09-10)"
   sodipodi:docname="wind-power-grey.svg">
  <defs
     id="defs2" />
  <sodipodi:namedview
     id="base"
     pagecolor="#ffffff"
     bordercolor="#666666"
     borderopacity="1.0"
     inkscape:pageopacity="0.0"
     inkscape:pageshadow="2"
     inkscape:zoom="0.35"
     inkscape:cx="400"
     inkscape:cy="560"
     inkscape:document-units="mm"
     inkscape:current-layer="layer1"
     inkscape:document-rotation="0"
     showgrid="false"
     inkscape:window-width="1440"
     inkscape:window-height="900"
     inkscape:window-x="0"
     inkscape:window-y="0"
     inkscape:window-maximized="0" />
  <metadata
     id="metadata5">
    <rdf:RDF>
      <cc:Work
         rdf:about="">
        <dc:format>image/svg+xml</dc:format>
        <dc:type
           rdf:resource="http://purl.org/dc/dcmitype/StillImage" />
        <dc:title></dc:title>
      </cc:Work>
    </rdf:RDF>
  </metadata>
  <g
     inkscape:label="Ebene 1"
     inkscape:groupmode="layer"
     id="layer1">
    <g
       transform="matrix(0.03527778,0,0,-0.03527778,-4.0791739,215.77738)"
       fill="#000000"
       stroke="none"
       id="g38"
       style="fill:#666666">
      <path
         d="m 1473,5028 c -41,-20 -101,-207 -124,-384 -14,-117 -7,-344 16,-467 35,-192 106,-396 211,-607 106,-212 98,-202 223,-264 l 109,-55 -26,-53 c -20,-41 -27,-73 -30,-142 l -5,-89 -496,-706 c -272,-388 -503,-721 -512,-739 -14,-26 -15,-40 -7,-63 20,-58 64,-62 229,-20 414,105 769,398 1070,883 l 70,112 -7,127 -7,126 66,5 c 50,4 81,14 136,44 l 71,38 890,-79 890,-78 25,23 c 18,17 25,34 25,62 0,36 -8,47 -117,157 -303,306 -708,460 -1251,478 l -182,6 -102,-68 c -93,-62 -102,-66 -111,-49 -22,39 -105,117 -152,143 l -50,27 -376,809 c -207,444 -384,814 -394,822 -22,15 -51,16 -82,1 z"
         id="path28"
         style="fill:#666666" />
      <path
         d="m 2255,4295 c -31,-30 -33,-77 -5,-105 21,-21 28,-23 138,-39 144,-22 312,-88 447,-176 82,-53 250,-224 311,-315 46,-69 53,-75 88,-78 47,-4 86,27 86,69 0,42 -108,195 -209,297 -187,188 -433,315 -694,357 -122,20 -134,19 -162,-10 z"
         id="path30"
         style="fill:#666666" />
      <path
         d="m 1132,3707 c -29,-13 -100,-159 -136,-277 -95,-317 -69,-716 61,-922 39,-63 113,-64 139,-3 13,33 12,39 -11,94 -131,313 -122,638 26,948 21,46 39,87 39,92 0,24 -24,60 -47,70 -29,13 -41,13 -71,-2 z"
         id="path32"
         style="fill:#666666" />
      <path
         d="m 2377,2558 c -28,-10 -29,-12 -23,-67 8,-74 -11,-127 -94,-259 -66,-105 -207,-297 -291,-394 l -45,-53 -68,-720 c -38,-396 -71,-744 -73,-772 l -6,-53 h -224 c -227,0 -253,-4 -280,-39 -20,-26 -15,-70 12,-96 l 24,-25 h 901 901 l 24,25 c 40,39 32,96 -16,120 -22,12 -75,15 -254,15 -212,0 -225,1 -225,18 0,23 -207,2198 -216,2265 -3,26 -9,47 -12,46 -4,0 -20,-5 -35,-11 z"
         id="path34"
         style="fill:#666666" />
      <path
         d="m 3164,2437 c -12,-7 -48,-46 -81,-87 -71,-90 -153,-165 -248,-227 -84,-55 -95,-68 -95,-108 0,-40 36,-75 76,-75 67,0 288,179 399,324 70,92 74,141 14,171 -33,18 -38,18 -65,2 z"
         id="path36"
         style="fill:#666666" />
    </g>
  </g>
</svg>
