<?xml version="1.0" standalone="no"?>
<!DOCTYPE svg PUBLIC "-//W3C//DTD SVG 20010904//EN"
 "http://www.w3.org/TR/2001/REC-SVG-20010904/DTD/svg10.dtd">
<svg version="1.0" xmlns="http://www.w3.org/2000/svg"
 width="446.000000pt" height="512.000000pt" viewBox="0 0 446.000000 512.000000"
 preserveAspectRatio="xMidYMid meet">

<g transform="translate(0.000000,512.000000) scale(0.100000,-0.100000)"
fill="#000000" stroke="none">
<path d="M1546 4428 c-57 -52 -102 -277 -93 -473 7 -151 23 -234 78 -398 36
-111 154 -363 184 -397 8 -9 50 -33 93 -54 l80 -39 -21 -46 c-13 -29 -22 -70
-23 -109 -1 -45 -7 -71 -21 -90 -11 -15 -94 -133 -184 -262 -91 -129 -256
-364 -367 -521 -110 -157 -206 -298 -213 -312 -10 -22 -9 -31 6 -53 17 -26 19
-26 84 -20 77 8 213 52 303 97 215 108 432 323 607 597 l53 84 -4 98 -3 99 50
6 c28 4 74 20 104 37 l54 30 176 -16 c97 -9 253 -23 346 -32 94 -8 242 -21
330 -29 493 -45 516 -47 541 -30 17 11 24 25 24 46 0 25 -17 47 -97 128 -128
127 -243 202 -403 261 -174 64 -345 96 -560 106 l-135 6 -78 -51 -77 -51 -58
59 c-32 33 -70 63 -83 66 -22 5 -63 88 -313 628 -159 342 -298 630 -309 640
-26 23 -41 22 -71 -5z"/>
<path d="M2158 3873 c-25 -28 -23 -69 5 -87 12 -7 58 -19 102 -26 236 -36 438
-171 592 -393 27 -38 38 -47 63 -47 36 0 65 38 56 74 -9 37 -115 175 -181 234
-154 141 -365 239 -555 258 -57 5 -67 4 -82 -13z"/>
<path d="M1284 3415 c-26 -18 -85 -153 -114 -260 -31 -114 -38 -320 -15 -440
21 -115 69 -233 101 -247 32 -15 73 -2 84 27 7 18 4 36 -9 69 -51 118 -66 195
-66 346 0 163 16 239 80 378 41 88 42 95 13 122 -26 24 -46 25 -74 5z"/>
<path d="M2248 2533 c-15 -4 -18 -16 -18 -64 0 -45 -7 -73 -26 -112 -39 -76
-152 -240 -232 -334 -79 -93 -68 -50 -102 -408 -63 -677 -81 -859 -86 -867 -3
-4 -86 -8 -184 -8 -149 0 -181 -3 -194 -16 -22 -21 -20 -60 4 -84 20 -20 33
-20 710 -20 l691 0 24 25 c29 28 31 42 9 73 -15 21 -20 22 -200 22 -139 0
-186 3 -188 12 -2 7 -11 99 -20 203 -9 105 -25 276 -36 380 -10 105 -26 267
-35 360 -8 94 -25 262 -36 375 -11 113 -25 263 -32 334 -7 71 -16 130 -22 131
-5 2 -18 1 -27 -2z"/>
<path d="M2810 2388 c-83 -95 -135 -143 -206 -190 -68 -46 -84 -73 -65 -114
14 -31 60 -32 110 -2 126 76 291 250 291 308 0 30 -30 60 -59 60 -8 0 -40 -28
-71 -62z"/>
</g>
</svg>
