<?xml version="1.0" standalone="no"?>
<!DOCTYPE svg PUBLIC "-//W3C//DTD SVG 20010904//EN"
 "http://www.w3.org/TR/2001/REC-SVG-20010904/DTD/svg10.dtd">
<svg version="1.0" xmlns="http://www.w3.org/2000/svg"
 width="446.000000pt" height="512.000000pt" viewBox="0 0 446.000000 512.000000"
 preserveAspectRatio="xMidYMid meet">

<g transform="translate(0.000000,512.000000) scale(0.100000,-0.100000)"
fill="#000000" stroke="none">
<path d="M1473 5028 c-41 -20 -101 -207 -124 -384 -14 -117 -7 -344 16 -467
35 -192 106 -396 211 -607 106 -212 98 -202 223 -264 l109 -55 -26 -53 c-20
-41 -27 -73 -30 -142 l-5 -89 -496 -706 c-272 -388 -503 -721 -512 -739 -14
-26 -15 -40 -7 -63 20 -58 64 -62 229 -20 414 105 769 398 1070 883 l70 112
-7 127 -7 126 66 5 c50 4 81 14 136 44 l71 38 890 -79 890 -78 25 23 c18 17
25 34 25 62 0 36 -8 47 -117 157 -303 306 -708 460 -1251 478 l-182 6 -102
-68 c-93 -62 -102 -66 -111 -49 -22 39 -105 117 -152 143 l-50 27 -376 809
c-207 444 -384 814 -394 822 -22 15 -51 16 -82 1z"/>
<path d="M2255 4295 c-31 -30 -33 -77 -5 -105 21 -21 28 -23 138 -39 144 -22
312 -88 447 -176 82 -53 250 -224 311 -315 46 -69 53 -75 88 -78 47 -4 86 27
86 69 0 42 -108 195 -209 297 -187 188 -433 315 -694 357 -122 20 -134 19
-162 -10z"/>
<path d="M1132 3707 c-29 -13 -100 -159 -136 -277 -95 -317 -69 -716 61 -922
39 -63 113 -64 139 -3 13 33 12 39 -11 94 -131 313 -122 638 26 948 21 46 39
87 39 92 0 24 -24 60 -47 70 -29 13 -41 13 -71 -2z"/>
<path d="M2377 2558 c-28 -10 -29 -12 -23 -67 8 -74 -11 -127 -94 -259 -66
-105 -207 -297 -291 -394 l-45 -53 -68 -720 c-38 -396 -71 -744 -73 -772 l-6
-53 -224 0 c-227 0 -253 -4 -280 -39 -20 -26 -15 -70 12 -96 l24 -25 901 0
901 0 24 25 c40 39 32 96 -16 120 -22 12 -75 15 -254 15 -212 0 -225 1 -225
18 0 23 -207 2198 -216 2265 -3 26 -9 47 -12 46 -4 0 -20 -5 -35 -11z"/>
<path d="M3164 2437 c-12 -7 -48 -46 -81 -87 -71 -90 -153 -165 -248 -227 -84
-55 -95 -68 -95 -108 0 -40 36 -75 76 -75 67 0 288 179 399 324 70 92 74 141
14 171 -33 18 -38 18 -65 2z"/>
</g>
</svg>
