<?xml version="1.0" encoding="utf-8"?>
<!-- Generator: Adobe Illustrator 25.2.1, SVG Export Plug-In . SVG Version: 6.00 Build 0)  -->
<svg version="1.1" xmlns="http://www.w3.org/2000/svg" xmlns:xlink="http://www.w3.org/1999/xlink" x="0px" y="0px"
	 viewBox="0 0 21.3 21.3" style="enable-background:new 0 0 21.3 21.3;" xml:space="preserve" width="20px" height="20px">
<style type="text/css">
	.st0{fill:#FFFFFF;}
</style>
<g id="Layer_2">
</g>
<g id="Layer_1" focusable="false">
	<g>
		<path d="M1.6,21c-0.4,0-0.7-0.2-1-0.5c-0.2-0.3-0.3-0.7-0.3-1l0.8-4.8L11.5,4.3c0.2-0.2,0.4-0.2,0.6-0.2c0.2,0,0.4,0.1,0.6,0.2
			L17,8.7c0.3,0.3,0.3,0.8,0,1.1L6.7,20.1L1.8,21C1.7,21,1.7,21,1.6,21z M3.6,18.7l2.1-0.4v-0.8H3.8v-1.9H3l-0.4,2.1L3.6,18.7z
			 M11.9,7.3c-0.1,0-0.1,0-0.2,0.1l-6,6c-0.1,0.1-0.1,0.2,0,0.3c0,0,0.1,0.1,0.2,0.1s0.1,0,0.2-0.1l6-6c0.1-0.1,0.1-0.2,0-0.3
			C12,7.3,12,7.3,11.9,7.3z M18,8.5c-0.2,0-0.4-0.1-0.6-0.2l-4.3-4.3c-0.3-0.3-0.3-0.8,0-1.1L14.9,1c0.4-0.4,1-0.6,1.6-0.6
			C17,0.3,17.6,0.6,18,1l2.3,2.3c0.4,0.4,0.6,1,0.6,1.6c0,0.6-0.2,1.1-0.6,1.6l-1.8,1.8C18.4,8.4,18.2,8.5,18,8.5z"/>
		<path class="st0" d="M16.4,0.7c0.5,0,1,0.2,1.3,0.5l2.3,2.3c0.7,0.7,0.7,1.9,0,2.7L18.3,8c-0.1,0.1-0.2,0.1-0.3,0.1
			s-0.2,0-0.3-0.1l-4.3-4.3c-0.2-0.2-0.2-0.5,0-0.7l1.8-1.8C15.5,0.8,16,0.7,16.4,0.7 M12.1,4.4c0.1,0,0.2,0,0.3,0.1l4.3,4.3
			c0.2,0.2,0.2,0.5,0,0.7L6.5,19.8l-4.7,0.8c-0.1,0-0.1,0-0.2,0c-0.6,0-1-0.5-0.9-1.1l0.8-4.7L11.8,4.6C11.9,4.5,12,4.4,12.1,4.4
			 M5.9,14.1c0.1,0,0.3-0.1,0.4-0.2l6-6c0.2-0.2,0.2-0.6,0-0.8C12.2,7,12.1,7,11.9,7S11.6,7,11.5,7.1l-6,6c-0.2,0.2-0.2,0.6,0,0.8
			C5.6,14,5.8,14.1,5.9,14.1 M3.5,19.1L6,18.6v-1.4H4.1v-1.9H2.7l-0.4,2.5L3.5,19.1 M16.4,0c-0.7,0-1.3,0.3-1.8,0.7l-1.8,1.8
			c-0.4,0.4-0.4,0.9-0.2,1.4c-0.2-0.1-0.4-0.1-0.6-0.1c-0.3,0-0.6,0.1-0.8,0.3L1,14.3l-0.1,0.1l0,0.2L0,19.5c-0.1,0.5,0,0.9,0.3,1.3
			c0.3,0.4,0.8,0.6,1.2,0.6c0.1,0,0.2,0,0.3,0l4.7-0.8l0.2,0L7,20.3L17.2,10c0.4-0.4,0.4-0.9,0.2-1.4c0.2,0.1,0.4,0.1,0.6,0.1
			c0.3,0,0.6-0.1,0.8-0.3l1.8-1.8c0.5-0.5,0.7-1.1,0.7-1.8c0-0.7-0.3-1.3-0.7-1.8l-2.3-2.3C17.8,0.3,17.1,0,16.4,0L16.4,0z M3.2,16
			h0.2v1.2v0.7h0.7h1.2v0.2l-1.6,0.3L3,17.6L3.2,16L3.2,16z"/>
	</g>
</g>
</svg>
