<svg xmlns="http://www.w3.org/2000/svg" viewBox="0 0 36.709 34.712">
  <g>
    <g>
      <g>
        <path d="M21.912,17.915H29.18a1.192,1.192,0,0,1,1.2,1.184v1.245a1.192,1.192,0,0,1-1.2,1.184h-15.9a1.192,1.192,0,0,1-1.2-1.184V19.1a1.192,1.192,0,0,1,1.2-1.184h4.607" fill="none" stroke="#010101" stroke-linecap="round" stroke-linejoin="round" stroke-width="1.5"/>
        <path d="M13.915,21.528h.914a.91.91,0,0,1,.915.9h0a.909.909,0,0,1-.915.9h-.914a.908.908,0,0,1-.915-.9h0A.909.909,0,0,1,13.915,21.528Z" fill="#010101" stroke="#010101" stroke-linecap="round" stroke-linejoin="round" stroke-width="1.5"/>
        <path d="M27.635,21.528h.914a.909.909,0,0,1,.915.9h0a.908.908,0,0,1-.915.9h-.914a.909.909,0,0,1-.915-.9h0A.91.91,0,0,1,27.635,21.528Z" fill="#010101" stroke="#010101" stroke-linecap="round" stroke-linejoin="round" stroke-width="1.5"/>
        <line x1="12.085" y1="7.526" x2="10.713" y2="7.526" fill="none" stroke="#010101" stroke-linecap="round" stroke-linejoin="round" stroke-width="0.909"/>
        <line x1="10.225" y1="6.17" x2="10.225" y2="8.881" fill="none" stroke="#010101" stroke-linecap="round" stroke-linejoin="round" stroke-width="1.5"/>
        <line x1="30.379" y1="7.526" x2="31.751" y2="7.526" fill="none" stroke="#010101" stroke-linecap="round" stroke-linejoin="round" stroke-width="1.5"/>
        <line x1="32.205" y1="6.17" x2="32.205" y2="8.881" fill="none" stroke="#010101" stroke-linecap="round" stroke-linejoin="round" stroke-width="1.5"/>
        <path d="M17.891,17.915H13.229a.684.684,0,0,1-.686-.678V5.371a3.3,3.3,0,0,1,3.306-3.266h1.2" fill="none" stroke="#010101" stroke-linecap="round" stroke-linejoin="round" stroke-width="1.5"/>
        <path d="M24.962,2.105h1.653a3.3,3.3,0,0,1,3.306,3.266V17.237a.684.684,0,0,1-.686.678H21.912" fill="none" stroke="#010101" stroke-linecap="round" stroke-linejoin="round" stroke-width="1.5"/>
        <path d="M27.614,5.719v5.33H14.372" fill="none" stroke="#010101" stroke-linecap="round" stroke-linejoin="round" stroke-width="1.5"/>
        <polyline points="14.372 16.108 17.116 16.108 17.116 14.387" fill="none" stroke="#010101" stroke-linecap="round" stroke-linejoin="round"/>
        <polyline points="25.348 16.108 27.614 16.108 27.614 14.387" fill="none" stroke="#010101" stroke-linecap="round" stroke-linejoin="round"/>
        <line x1="19.403" y1="14.387" x2="23.519" y2="14.387" fill="none" stroke="#010101" stroke-linecap="round" stroke-miterlimit="10"/>
        <line x1="19.403" y1="16.108" x2="23.519" y2="16.108" fill="none" stroke="#010101" stroke-linecap="round" stroke-miterlimit="10"/>
        <path d="M17.045,2.105V1.889A1.15,1.15,0,0,1,18.2.75h5.611a1.15,1.15,0,0,1,1.153,1.139v.216" fill="none" stroke="#010101" stroke-linecap="round" stroke-linejoin="round" stroke-width="1.5"/>
      </g>
      <g>
        <g>
          <g>
            <path d="M19.329,19.9a.757.757,0,1,1,0-1.513h.785a.757.757,0,1,1,0,1.513Z" fill="none" stroke="#fff" stroke-width="2"/>
            <path d="M17.312,27.867a.81.81,0,0,1,0-1.619h1.154a.81.81,0,1,1,0,1.619Z" fill="none" stroke="#fff" stroke-width="2"/>
            <path d="M2.144,24.88V23.2H5.859V19.275H15.925l-1.183-3.54,1.348-1.542a4.886,4.886,0,0,1,1.5,2.279l.95,3.22.029.039c.737,0,1.154,1.154,1.154,1.891V24.88a1.376,1.376,0,0,1-1.357,1.368H3.5A1.371,1.371,0,0,1,2.144,24.88Z" fill="none" stroke="#fff" stroke-width="2"/>
            <path d="M16.09,14.193l-1.348,1.542,1.183,3.54H5.432l-1.794-.533.669-2.27A4.444,4.444,0,0,1,8.1,13.243h5.692A3.66,3.66,0,0,1,16.09,14.193Z" fill="none" stroke="#fff" stroke-width="2"/>
            <path d="M2.144,21.622a2.458,2.458,0,0,1,.65-1.687.621.621,0,0,0,.272-.165.65.65,0,0,1,.232-.039l.059-.039.281-.95,1.794.533h.427V23.2H2.144Z" fill="none" stroke="#fff" stroke-width="2"/>
            <path d="M3.424,26.248H4.578a.81.81,0,1,1,0,1.619H3.424a.81.81,0,1,1,0-1.619Z" fill="none" stroke="#fff" stroke-width="2"/>
            <path d="M1.756,18.46h.776a.762.762,0,0,1,.766.767,5.135,5.135,0,0,1-.232.543.863.863,0,0,0-.272.165.741.741,0,0,1-.262.048H1.756a.762.762,0,0,1,0-1.523Z" fill="none" stroke="#fff" stroke-width="2"/>
            <path d="M3.066,19.77a.621.621,0,0,1-.272.165A.863.863,0,0,1,3.066,19.77Z" fill="none" stroke="#fff" stroke-width="2"/>
          </g>
          <g>
            <polyline points="5.432 19.275 5.859 19.275 15.925 19.275 14.742 15.735" fill="none" stroke="#fff" stroke-width="2"/>
            <line x1="9.098" y1="21.457" x2="13.258" y2="21.457" fill="none" stroke="#fff" stroke-width="2"/>
            <line x1="9.117" y1="23.203" x2="13.277" y2="23.203" fill="none" stroke="#fff" stroke-width="2"/>
            <polyline points="4.006 23.203 5.859 23.203 5.859 21.467" fill="none" stroke="#fff" stroke-width="2"/>
            <polyline points="16.041 22.679 17.894 22.679 17.894 21.467" fill="none" stroke="#fff" stroke-width="2"/>
            <path d="M3.357,19.692l.281-.95.669-2.27A4.444,4.444,0,0,1,8.1,13.243H10.95" fill="none" stroke="#fff" stroke-width="2"/>
            <path d="M18.543,19.692l-.95-3.22a4.886,4.886,0,0,0-1.5-2.279,3.66,3.66,0,0,0-2.3-.95H10.95" fill="none" stroke="#fff" stroke-width="2"/>
            <path d="M10.8,26.248H3.5A1.371,1.371,0,0,1,2.144,24.88V21.622a2.458,2.458,0,0,1,.65-1.687.863.863,0,0,1,.272-.165.65.65,0,0,1,.232-.039" fill="none" stroke="#fff" stroke-width="2"/>
            <path d="M10.8,26.248h7.565a1.376,1.376,0,0,0,1.357-1.368V21.622c0-.737-.417-1.891-1.154-1.891" fill="none" stroke="#fff" stroke-width="2"/>
          </g>
        </g>
        <g>
          <g>
            <path d="M19.329,19.9a.757.757,0,1,1,0-1.513h.785a.757.757,0,1,1,0,1.513Z" fill="#010101"/>
            <path d="M17.312,27.867a.81.81,0,0,1,0-1.619h1.154a.81.81,0,1,1,0,1.619Z" fill="#010101"/>
            <path d="M2.144,24.88V23.2H5.859V19.275H15.925l-1.183-3.54,1.348-1.542a4.886,4.886,0,0,1,1.5,2.279l.95,3.22.029.039c.737,0,1.154,1.154,1.154,1.891V24.88a1.376,1.376,0,0,1-1.357,1.368H3.5A1.371,1.371,0,0,1,2.144,24.88Z" fill="#fff"/>
            <path d="M16.09,14.193l-1.348,1.542,1.183,3.54H5.432l-1.794-.533.669-2.27A4.444,4.444,0,0,1,8.1,13.243h5.692A3.66,3.66,0,0,1,16.09,14.193Z" fill="#fff"/>
            <path d="M2.144,21.622a2.458,2.458,0,0,1,.65-1.687.621.621,0,0,0,.272-.165.65.65,0,0,1,.232-.039l.059-.039.281-.95,1.794.533h.427V23.2H2.144Z" fill="#fff"/>
            <path d="M3.424,26.248H4.578a.81.81,0,1,1,0,1.619H3.424a.81.81,0,1,1,0-1.619Z" fill="#010101"/>
            <path d="M1.756,18.46h.776a.762.762,0,0,1,.766.767,5.135,5.135,0,0,1-.232.543.863.863,0,0,0-.272.165.741.741,0,0,1-.262.048H1.756a.762.762,0,0,1,0-1.523Z" fill="#010101"/>
            <path d="M3.066,19.77a.621.621,0,0,1-.272.165A.863.863,0,0,1,3.066,19.77Z" fill="#010101"/>
          </g>
          <g>
            <polyline points="5.432 19.275 5.859 19.275 15.925 19.275 14.742 15.735" fill="none" stroke="#010101" stroke-linecap="round" stroke-linejoin="round" stroke-width="1.5"/>
            <line x1="9.098" y1="21.457" x2="13.258" y2="21.457" fill="none" stroke="#010101" stroke-linecap="round" stroke-miterlimit="10"/>
            <line x1="9.117" y1="23.203" x2="13.277" y2="23.203" fill="none" stroke="#010101" stroke-linecap="round" stroke-miterlimit="10"/>
            <polyline points="4.006 23.203 5.859 23.203 5.859 21.467" fill="none" stroke="#010101" stroke-linecap="round" stroke-linejoin="round"/>
            <polyline points="16.041 22.679 17.894 22.679 17.894 21.467" fill="none" stroke="#fff" stroke-linecap="round" stroke-linejoin="round" stroke-width="1.047"/>
            <path d="M3.357,19.692l.281-.95.669-2.27A4.444,4.444,0,0,1,8.1,13.243H10.95" fill="none" stroke="#010101" stroke-linecap="round" stroke-linejoin="round" stroke-width="1.5"/>
            <path d="M18.543,19.692l-.95-3.22a4.886,4.886,0,0,0-1.5-2.279,3.66,3.66,0,0,0-2.3-.95H10.95" fill="none" stroke="#010101" stroke-linecap="round" stroke-linejoin="round" stroke-width="1.5"/>
            <path d="M10.8,26.248H3.5A1.371,1.371,0,0,1,2.144,24.88V21.622a2.458,2.458,0,0,1,.65-1.687.863.863,0,0,1,.272-.165.65.65,0,0,1,.232-.039" fill="none" stroke="#010101" stroke-linecap="round" stroke-linejoin="round" stroke-width="1.5"/>
            <path d="M10.8,26.248h7.565a1.376,1.376,0,0,0,1.357-1.368V21.622c0-.737-.417-1.891-1.154-1.891" fill="none" stroke="#010101" stroke-linecap="round" stroke-linejoin="round" stroke-width="1.5"/>
          </g>
        </g>
      </g>
    </g>
    <g>
      <g>
        <g>
          <path d="M34.049,25.1a.82.82,0,1,1,0-1.64h.84a.82.82,0,1,1,0,1.64Z" fill="none" stroke="#fff" stroke-width="2"/>
          <path d="M17.489,28.442h2v-4.01h11.15l-1.27-3.8,1.44-1.45a5.17,5.17,0,0,1,1.36,2.22l1.02,3.48.03.04c.81,0,1.25,1.24,1.25,2.04v3.52a1.479,1.479,0,0,1-1.46,1.48H16.939a1.479,1.479,0,0,1-1.46-1.48v-2.04Z" fill="none" stroke="#fff" stroke-width="2"/>
          <path d="M31.869,33.712a.875.875,0,1,1,0-1.75h1.24a.875.875,0,1,1,0,1.75Z" fill="none" stroke="#fff" stroke-width="2"/>
          <path d="M28.059,17.912a4.108,4.108,0,0,1,2.75,1.27l-1.44,1.45,1.27,3.8H19.029l-1.94-.57.72-2.46a4.816,4.816,0,0,1,4.1-3.49h6.15Z" fill="none" stroke="#fff" stroke-width="2"/>
          <path d="M16.789,24.882l.3-1.02,1.94.57h.46v4.01h-4.01v-1.48a2.606,2.606,0,0,1,.7-1.82.771.771,0,0,0,.27-.17h.01a.763.763,0,0,1,.27-.05Z" fill="none" stroke="#fff" stroke-width="2"/>
          <path d="M16.939,31.962h1.17a.875.875,0,1,1,0,1.75h-1.25a.875.875,0,0,1,0-1.75Z" fill="none" stroke="#fff" stroke-width="2"/>
          <path d="M15.059,23.552h.84a.824.824,0,0,1,.82.82,3.168,3.168,0,0,1-.26.6h-.01a.948.948,0,0,0-.27.17.868.868,0,0,1-.28.05h-.84a.82.82,0,1,1,0-1.64Z" fill="none" stroke="#fff" stroke-width="2"/>
          <path d="M16.449,24.972a.771.771,0,0,1-.27.17A.948.948,0,0,1,16.449,24.972Z" fill="none" stroke="#fff" stroke-width="2"/>
        </g>
        <g>
          <polyline points="19.029 24.432 19.489 24.432 30.639 24.432 29.369 20.632" fill="none" stroke="#fff" stroke-width="2"/>
          <line x1="22.989" y1="26.792" x2="27.489" y2="26.792" fill="none" stroke="#fff" stroke-width="2"/>
          <line x1="22.989" y1="28.442" x2="27.489" y2="28.442" fill="none" stroke="#fff" stroke-width="2"/>
          <polyline points="17.489 28.442 19.489 28.442 19.489 26.792" fill="none" stroke="#fff" stroke-width="2"/>
          <polyline points="30.489 28.442 32.489 28.442 32.489 26.792" fill="none" stroke="#fff" stroke-width="2"/>
          <path d="M16.789,24.882l.3-1.02.72-2.46a4.816,4.816,0,0,1,4.1-3.49h3.08" fill="none" stroke="#fff" stroke-width="2"/>
          <path d="M33.189,24.882l-1.02-3.48a5.17,5.17,0,0,0-1.36-2.22,4.108,4.108,0,0,0-2.75-1.27h-3.07" fill="none" stroke="#fff" stroke-width="2"/>
          <path d="M24.829,31.962h-7.89a1.479,1.479,0,0,1-1.46-1.48v-3.52a2.606,2.606,0,0,1,.7-1.82.948.948,0,0,1,.27-.17h.01a.763.763,0,0,1,.27-.05" fill="none" stroke="#fff" stroke-width="2"/>
          <path d="M24.829,31.962h8.18a1.479,1.479,0,0,0,1.46-1.48v-3.52c0-.8-.44-2.04-1.25-2.04" fill="none" stroke="#fff" stroke-width="2"/>
        </g>
      </g>
      <g>
        <g>
          <path d="M34.049,25.1a.82.82,0,1,1,0-1.64h.84a.82.82,0,1,1,0,1.64Z" fill="#010101"/>
          <path d="M17.489,28.442h2v-4.01h11.15l-1.27-3.8,1.44-1.45a5.17,5.17,0,0,1,1.36,2.22l1.02,3.48.03.04c.81,0,1.25,1.24,1.25,2.04v3.52a1.479,1.479,0,0,1-1.46,1.48H16.939a1.479,1.479,0,0,1-1.46-1.48v-2.04Z" fill="#fff"/>
          <path d="M31.869,33.712a.875.875,0,1,1,0-1.75h1.24a.875.875,0,1,1,0,1.75Z" fill="#010101"/>
          <path d="M28.059,17.912a4.108,4.108,0,0,1,2.75,1.27l-1.44,1.45,1.27,3.8H19.029l-1.94-.57.72-2.46a4.816,4.816,0,0,1,4.1-3.49h6.15Z" fill="#fff"/>
          <path d="M16.789,24.882l.3-1.02,1.94.57h.46v4.01h-4.01v-1.48a2.606,2.606,0,0,1,.7-1.82.771.771,0,0,0,.27-.17h.01a.763.763,0,0,1,.27-.05Z" fill="#fff"/>
          <path d="M16.939,31.962h1.17a.875.875,0,1,1,0,1.75h-1.25a.875.875,0,0,1,0-1.75Z" fill="#010101"/>
          <path d="M15.059,23.552h.84a.824.824,0,0,1,.82.82,3.168,3.168,0,0,1-.26.6h-.01a.948.948,0,0,0-.27.17.868.868,0,0,1-.28.05h-.84a.82.82,0,1,1,0-1.64Z" fill="#010101"/>
          <path d="M16.449,24.972a.771.771,0,0,1-.27.17A.948.948,0,0,1,16.449,24.972Z" fill="#010101"/>
        </g>
        <g>
          <polyline points="19.029 24.432 19.489 24.432 30.639 24.432 29.369 20.632" fill="none" stroke="#010101" stroke-linecap="round" stroke-linejoin="round" stroke-width="1.5"/>
          <line x1="22.989" y1="26.792" x2="27.489" y2="26.792" fill="none" stroke="#010101" stroke-linecap="round" stroke-miterlimit="10"/>
          <line x1="22.989" y1="28.442" x2="27.489" y2="28.442" fill="none" stroke="#010101" stroke-linecap="round" stroke-miterlimit="10"/>
          <polyline points="17.489 28.442 19.489 28.442 19.489 26.792" fill="none" stroke="#010101" stroke-linecap="round" stroke-linejoin="round"/>
          <polyline points="30.489 28.442 32.489 28.442 32.489 26.792" fill="none" stroke="#010101" stroke-linecap="round" stroke-linejoin="round"/>
          <path d="M16.789,24.882l.3-1.02.72-2.46a4.816,4.816,0,0,1,4.1-3.49h3.08" fill="none" stroke="#010101" stroke-linecap="round" stroke-linejoin="round" stroke-width="1.5"/>
          <path d="M33.189,24.882l-1.02-3.48a5.17,5.17,0,0,0-1.36-2.22,4.108,4.108,0,0,0-2.75-1.27h-3.07" fill="none" stroke="#010101" stroke-linecap="round" stroke-linejoin="round" stroke-width="1.5"/>
          <path d="M24.829,31.962h-7.89a1.479,1.479,0,0,1-1.46-1.48v-3.52a2.606,2.606,0,0,1,.7-1.82.948.948,0,0,1,.27-.17h.01a.763.763,0,0,1,.27-.05" fill="none" stroke="#010101" stroke-linecap="round" stroke-linejoin="round" stroke-width="1.5"/>
          <path d="M24.829,31.962h8.18a1.479,1.479,0,0,0,1.46-1.48v-3.52c0-.8-.44-2.04-1.25-2.04" fill="none" stroke="#010101" stroke-linecap="round" stroke-linejoin="round" stroke-width="1.5"/>
        </g>
      </g>
    </g>
  </g>
</svg>
