<svg xmlns="http://www.w3.org/2000/svg" viewBox="0 0 39.924 27.749">
  <g>
    <line x1="22.587" y1="24.689" x2="11.774" y2="24.899" fill="none" stroke="#010101" stroke-linecap="round" stroke-linejoin="round" stroke-width="1.5"/>
    <path d="M1.854,24.9c-.473-.105-.893-.262-.945-.525C.856,23.849.751,22.38.751,21.7a1.376,1.376,0,0,1,.21-.787c.578-1.05,2.52-3.57,7.821-3.36l5.406-3.621a1.74,1.74,0,0,1,.84-.263l10.288-.052a1.452,1.452,0,0,1,.473.052c1.155.315,6.141,2.1,5.459,6.614l.577.315a.9.9,0,0,1,.525.63,3.69,3.69,0,0,1-.105,2.257" fill="none" stroke="#010101" stroke-linecap="round" stroke-linejoin="round" stroke-width="1.5"/>
    <polyline points="10.672 18.863 26.524 18.757 26.524 16.09" fill="none" stroke="#010101" stroke-linecap="round" stroke-linejoin="round" stroke-width="1.5"/>
    <circle cx="6.683" cy="24.374" r="2.625" fill="none" stroke="#010101" stroke-linecap="round" stroke-linejoin="round" stroke-width="1.5"/>
    <circle cx="27.574" cy="24.374" r="2.625" fill="none" stroke="#010101" stroke-linecap="round" stroke-linejoin="round" stroke-width="1.5"/>
    <polyline points="4.304 20.429 2.855 21.584 1.171 21.54" fill="none" stroke="#010101" stroke-linecap="round" stroke-linejoin="round" stroke-width="1.5"/>
    <path d="M24.4,4.821a3.658,3.658,0,0,1,6.3-2.7,2.919,2.919,0,0,1,5.389,1.44l.015,0a2.938,2.938,0,0,1,.269,5.87h0c-.048,0-.093-.008-.14-.008a2.167,2.167,0,0,1-1.136,2.847L35,12.3c.006.044.029.08.031.125a1.469,1.469,0,1,1-2.934.136v0a1.459,1.459,0,0,1,.337-.982,2.2,2.2,0,0,1-.326-.65,2.186,2.186,0,0,1-2.9-1.072,2.123,2.123,0,0,1-.165-.523,2.922,2.922,0,0,1-4.393-3.37A3.613,3.613,0,0,1,24.4,4.821Z" fill="none" stroke="#010101" stroke-linecap="round" stroke-linejoin="round" stroke-width="1.5"/>
  </g>
</svg>
