<svg xmlns="http://www.w3.org/2000/svg" viewBox="0 0 40.383 24.71">
  <g>
    <g>
      <circle cx="27.017" cy="21.554" r="2.406" fill="none" stroke="#010101" stroke-miterlimit="10" stroke-width="1.5"/>
      <polyline points="22.539 11.729 26.616 11.729 26.616 6.984" fill="none" stroke="#010101" stroke-linecap="round" stroke-linejoin="round" stroke-width="1.5"/>
      <path d="M22.21,20.455H18.617a.8.8,0,0,1-.8-.794l-.069-5.034a2.409,2.409,0,0,1,.251-1.1c.212-.425.482-.963.514-1.006.046-.061.72-1.954,1.87-6.1C21.544,2.226,28.826,1.672,31.3,1.608a.8.8,0,0,1,.818.8V19.653c0,.257,0,.6,0,.6" fill="none" stroke="#010101" stroke-linecap="round" stroke-linejoin="round" stroke-width="1.5"/>
      <path d="M39.633,19.9H34.921V1.552a.8.8,0,0,1,.8-.8h3.91" fill="none" stroke="#010101" stroke-linecap="round" stroke-linejoin="round" stroke-width="1.5"/>
    </g>
    <g>
      <line x1="6.722" y1="21.86" x2="0.75" y2="21.744" fill="none" stroke="#010101" stroke-linecap="round" stroke-linejoin="round" stroke-width="1.5"/>
      <path d="M.75,10.613l2.718.014a1.753,1.753,0,0,1,.84.262l5.406,3.622c.772-.03.506.44,1.142.512.366.042.639-.869,1.379-.658.683.2.547,1.3.873,1.458.67.33,1.462-1.542,2.115-1.162.67.39.12,1.666.487,1.911.262.175.85.03,1.032.223a5.286,5.286,0,0,1,.793,1.076,1.374,1.374,0,0,1,.21.787c0,.682-.105,2.152-.158,2.677-.052.263-.472.42-.945.525" fill="none" stroke="#010101" stroke-linecap="round" stroke-linejoin="round" stroke-width="1.5"/>
      <circle cx="11.813" cy="21.335" r="2.625" fill="none" stroke="#010101" stroke-linecap="round" stroke-linejoin="round" stroke-width="1.5"/>
      <polyline points="17.325 18.501 15.482 18.545 14.484 18.022" fill="none" stroke="#010101" stroke-linecap="round" stroke-linejoin="round" stroke-width="1.5"/>
      <polyline points="0.75 13.5 0.75 15.776 7.824 15.823" fill="none" stroke="#010101" stroke-linecap="round" stroke-linejoin="round" stroke-width="1.5"/>
    </g>
    <polyline points="14.43 10.502 11.911 7.265 14.484 6.462 11.319 2.395" fill="none" stroke="#010101" stroke-linecap="round" stroke-linejoin="round" stroke-width="1.5"/>
  </g>
</svg>
