<svg xmlns="http://www.w3.org/2000/svg" xmlns:xlink="http://www.w3.org/1999/xlink" viewBox="0 0 640 256">
  <defs>
    <clipPath id="a">
      <rect width="640" height="257.983" fill="none" stroke="#530094" stroke-miterlimit="10"/>
    </clipPath>
  </defs>
  <rect width="640" height="257.983" fill="#cf82fe"/>
  <g>
    <g clip-path="url(#a)">
      <g>
        <path d="M262.525-26.814c-101.82,0-184.35,82.54-184.35,184.36a184.35,184.35,0,0,0,368.7,0C446.875,55.726,364.345-26.814,262.525-26.814Zm0,314.71a130.355,130.355,0,1,1,130.36-130.35A130.359,130.359,0,0,1,262.525,287.9Z" fill="#81fcab"/>
        <path d="M262.27-20.139A178.685,178.685,0,0,1,440.954,158.545,178.684,178.684,0,1,1,135.921,32.2,177.516,177.516,0,0,1,262.27-20.139m0-5.669c-101.816,0-184.353,82.538-184.353,184.353S160.454,342.9,262.27,342.9A184.354,184.354,0,0,0,446.624,158.545c0-101.815-82.538-184.353-184.354-184.353Z" fill="#530094"/>
        <g>
          <path d="M210.021,143.7a28.4,28.4,0,0,0,8.954-2.123,17.179,17.179,0,0,0,6.831-5.077,13.723,13.723,0,0,0,2.676-8.861q0-8.307-5.539-12.738a19.808,19.808,0,0,0-12.737-4.43q-9.969,0-15.046,6.553t-4.891,16.523H165.346a54.866,54.866,0,0,1,3.6-18.184,41.532,41.532,0,0,1,9.046-14.123A40.08,40.08,0,0,1,191.93,92.1a48.593,48.593,0,0,1,18.091-3.23,54.17,54.17,0,0,1,15.507,2.307A44.224,44.224,0,0,1,239.466,98.1a37.492,37.492,0,0,1,10.061,11.261,29.847,29.847,0,0,1,3.877,15.323,30.573,30.573,0,0,1-4.523,16.614,22.687,22.687,0,0,1-13.569,9.784v.369a28.159,28.159,0,0,1,16.8,10.339A30.318,30.318,0,0,1,258.2,180.8a39.918,39.918,0,0,1-3.969,18.091,39.513,39.513,0,0,1-10.615,13.292,46.86,46.86,0,0,1-15.322,8.123,62.43,62.43,0,0,1-37.938-.37,41.569,41.569,0,0,1-15.23-9.138,40.451,40.451,0,0,1-9.692-14.676,51.729,51.729,0,0,1-3.23-19.937H187.13a37.127,37.127,0,0,0,1.661,9.875,24.276,24.276,0,0,0,4.246,8.124,20.191,20.191,0,0,0,6.923,5.446,22.257,22.257,0,0,0,9.877,2.03,21.62,21.62,0,0,0,14.953-5.446q6.093-5.442,6.092-14.861,0-7.38-2.861-11.261a16.436,16.436,0,0,0-7.292-5.63,30.525,30.525,0,0,0-9.693-2.031q-5.261-.278-10.06-.277V143.7A55.022,55.022,0,0,0,210.021,143.7Z" fill="#81fcab" stroke="#530094" stroke-miterlimit="10" stroke-width="5.46"/>
          <path d="M269.188,123.851q3.783-12.829,10.247-20.584A36.741,36.741,0,0,1,294.479,92.19a51.935,51.935,0,0,1,36.553,0,37.43,37.43,0,0,1,15.138,11.077q6.55,7.754,10.338,20.584t3.785,31.66q0,19.385-3.785,32.4T346.17,208.678a37.421,37.421,0,0,1-15.138,11.077,51.921,51.921,0,0,1-36.553,0,36.732,36.732,0,0,1-15.044-11.077q-6.465-7.754-10.247-20.768t-3.784-32.4Q265.4,136.682,269.188,123.851Zm22.8,45.045a71.823,71.823,0,0,0,2.308,15.137,32.448,32.448,0,0,0,6.184,12.461q4.247,5.171,12.185,5.169,8.121,0,12.461-5.169a31.763,31.763,0,0,0,6.276-12.461,72.018,72.018,0,0,0,2.308-15.137q.368-7.845.369-13.385,0-3.323-.092-8.031a89.5,89.5,0,0,0-.738-9.691,90.836,90.836,0,0,0-1.847-9.877,30.349,30.349,0,0,0-3.6-8.769,19.832,19.832,0,0,0-6.092-6.276,16.275,16.275,0,0,0-9.046-2.4,15.808,15.808,0,0,0-8.954,2.4,19.257,19.257,0,0,0-5.907,6.276,33.946,33.946,0,0,0-3.6,8.769,68.267,68.267,0,0,0-1.847,9.877q-.553,4.983-.645,9.691t-.093,8.031Q291.618,161.049,291.987,168.9Z" fill="#81fcab" stroke="#530094" stroke-miterlimit="10" stroke-width="5.46"/>
        </g>
      </g>
    </g>
    <rect width="640" height="257.983" fill="none" stroke="#530094" stroke-miterlimit="10"/>
  </g>
</svg>
