<svg xmlns="http://www.w3.org/2000/svg" xmlns:xlink="http://www.w3.org/1999/xlink" viewBox="0 0 640 256">
  <defs>
    <clipPath id="a">
      <rect width="640" height="258.602" fill="none"/>
    </clipPath>
  </defs>
  <rect width="640" height="257.983" fill="#cf82fe"/>
  <g clip-path="url(#a)">
    <g>
      <g>
        <ellipse cx="221.28" cy="57.918" rx="9.556" ry="8.549" fill="#81fcab" stroke="#530094" stroke-miterlimit="10" stroke-width="5.669"/>
        <path d="M192.564,220.1a4.905,4.905,0,0,0,4.827,5.672,8.059,8.059,0,0,0,7.13-5.5L222,162.953a37.5,37.5,0,0,1,5.333-10.166l7.006-8.945a18.017,18.017,0,0,0,3.346-10.361l-1.59-29.207L235.074,89.1c-.42-6.258-6.5-11.5-13.506-11.5H221.4c-7.01,0-13.379,5.216-14.164,11.445l-1.764,14.168Z" fill="#81fcab" stroke="#530094" stroke-linecap="round" stroke-linejoin="round" stroke-width="5.669"/>
        <path d="M234.578,143.537l5.8,32.826a32.329,32.329,0,0,0,4.3,10.5l15.366,22.626a5.355,5.355,0,0,1-1.471,7.719,6.949,6.949,0,0,1-8.562-1.736L233.23,195.14a50.5,50.5,0,0,1-6.1-9.895l-7.016-16.108" fill="#81fcab" stroke="#530094" stroke-linecap="round" stroke-linejoin="round" stroke-width="5.669"/>
        <path d="M221.917,91.845l.174,17.809a49.546,49.546,0,0,1-1.456,11.234l-9.06,33.173" fill="#81fcab" stroke="#530094" stroke-linecap="round" stroke-linejoin="round" stroke-width="5.669"/>
      </g>
      <g>
        <ellipse cx="343.414" cy="56.403" rx="6.724" ry="6.767" fill="#81fcab" stroke="#530094" stroke-miterlimit="10" stroke-width="5.669"/>
        <path d="M323.206,184.765c-.24,2.469,1.287,4.489,3.4,4.489s4.37-1.958,5.017-4.352l12.3-45.367a31.12,31.12,0,0,1,3.752-8.046l4.93-7.08a15.5,15.5,0,0,0,2.356-8.2l-1.12-23.117L353.12,81.08a9.777,9.777,0,0,0-9.5-9.1H343.5a10.407,10.407,0,0,0-9.967,9.059l-1.241,11.213Z" fill="#81fcab" stroke="#530094" stroke-linecap="round" stroke-linejoin="round" stroke-width="5.669"/>
        <path d="M352.771,124.167l4.081,25.981a27.444,27.444,0,0,0,3.026,8.31l10.813,17.908a4.257,4.257,0,1,1-7.06,4.735L351.823,165.01a41.084,41.084,0,0,1-4.29-7.832L342.6,144.429" fill="#81fcab" stroke="#530094" stroke-linecap="round" stroke-linejoin="round" stroke-width="5.669"/>
        <path d="M343.862,83.255l.122,14.1a43.9,43.9,0,0,1-1.024,8.892L336.584,132.5" fill="none" stroke="#530094" stroke-linecap="round" stroke-linejoin="round" stroke-width="5.669"/>
        <path d="M351.925,51.96s1.42-.817,2.37-.159c1.117.772,2.1,3.937,3.459,5.227a8.373,8.373,0,0,0,4.872,2.339" fill="none" stroke="#530094" stroke-linecap="round" stroke-linejoin="round" stroke-width="5.669"/>
      </g>
      <g>
        <ellipse cx="566.568" cy="62.5" rx="9.131" ry="9.189" fill="#81fcab"/>
        <path d="M539.128,236.808c-.327,3.353,1.748,6.1,4.613,6.1s5.934-2.659,6.813-5.911l16.7-61.606a42.279,42.279,0,0,1,5.1-10.926l6.7-9.614a21.049,21.049,0,0,0,3.2-11.135l-1.52-31.391-.971-16.312a13.277,13.277,0,0,0-12.906-12.355h-.158c-6.7,0-12.784,5.606-13.534,12.3l-1.685,15.227Z" fill="#81fcab"/>
        <path d="M579.275,154.52l5.542,35.281a37.263,37.263,0,0,0,4.109,11.284L603.61,225.4c1.736,2.877,1.106,6.613-1.406,8.3s-6.191.847-8.181-1.866l-16.036-21.851a55.9,55.9,0,0,1-5.826-10.635l-6.7-17.312" fill="#81fcab"/>
        <path d="M567.177,98.963l.166,19.141a59.536,59.536,0,0,1-1.391,12.075l-8.658,35.652" fill="#81fcab"/>
      </g>
      <path d="M477.506,217.6l-.908.221c-6.4,6.273-14.5,6.273-25.067,6.273l-.208-.025a50.668,50.668,0,0,1-3.45,12.043c-2.614,6.788-12.054,3.375-9.931-2.75,1.056-3,2.333-11.122,1.056-12.4-3.142-3.143-3.142-12.533-9.4-12.533,0,0-9.4,3.13-12.533,3.13-2.222,0-6.567-5.291-6.273-6.273.381-1.277,9.4-6.26,9.4-6.26s1.314-7.722,3.13-9.4c2.37-2.2,9.4-3.131,9.4-3.131l1.228-2.467,13.417,9.759,26.1-1.031c9.857-.982,19.517,1.522,21.936,3.13a12.49,12.49,0,0,0,6.837,1.964c-.27.909-1.141,4.088-3.707,13.712,0,6.53-5.008,10-6.273,12.533-.528,1.056,0,6.273-3.13,12.533s-12.533,3.13-9.4-3.13a11.415,11.415,0,0,0,.786-7.832A47.485,47.485,0,0,1,477.506,217.6Z" fill="#81fcab"/>
      <g>
        <circle cx="565.475" cy="58.34" r="9.401" fill="none" stroke="#530094" stroke-miterlimit="10" stroke-width="5.669"/>
        <path d="M546.77,142.656,537.219,236.7c-.349,3.43,1.781,6.236,4.731,6.236s6.109-2.72,7.015-6.047l17.192-63.035a43.162,43.162,0,0,1,5.245-11.179l6.892-9.839a21.437,21.437,0,0,0,3.293-11.393l-1.542-31.71" fill="none" stroke="#530094" stroke-linecap="round" stroke-linejoin="round" stroke-width="5.669"/>
        <path d="M578.53,152.5l5.7,36.117a38.042,38.042,0,0,0,4.229,11.546l15.118,24.883c1.787,2.944,1.138,6.766-1.448,8.489s-6.374.866-8.421-1.91L577.2,209.262a56.931,56.931,0,0,1-6-10.882l-6.9-17.716" fill="none" stroke="#530094" stroke-linecap="round" stroke-linejoin="round" stroke-width="5.669"/>
        <path d="M581.005,125.675l-1.983-33.05a13.634,13.634,0,0,0-13.287-12.643h-.162A14.513,14.513,0,0,0,551.639,92.57l-1.472,13.2" fill="none" stroke="#530094" stroke-linecap="round" stroke-linejoin="round" stroke-width="5.669"/>
        <path d="M566.1,95.65l-9.616,20.195a24.851,24.851,0,0,1-8.039,8.927l-23.8,14.554" fill="none" stroke="#530094" stroke-linecap="round" stroke-linejoin="round" stroke-width="5.669"/>
        <path d="M433.957,211.6l15.669-15.668s53.273-18.8,75.013-56.6" fill="none" stroke="#530094" stroke-linecap="round" stroke-linejoin="round" stroke-width="5.669"/>
        <path d="M518.567,180.26c6.267,15.669-12.535,25.07-21.936,18.8-2.418-1.609-12.076-4.119-21.936-3.133l-26.1,1.028-5.239-3.183" fill="none" stroke="#530094" stroke-linecap="round" stroke-linejoin="round" stroke-width="5.669"/>
        <path d="M477.829,214.731c0,6.267,3.917,14.105,3.917,14.105a11.442,11.442,0,0,1-.783,7.831c-3.134,6.267,6.267,9.4,9.4,3.134s2.607-11.483,3.133-12.535c1.264-2.528,6.265-6.008,6.268-12.535V211.6" fill="none" stroke="#530094" stroke-linecap="round" stroke-linejoin="round" stroke-width="5.669"/>
        <path d="M477.829,221c-6.4,6.271-14.493,6.268-25.07,6.268" fill="none" stroke="#530094" stroke-linecap="round" stroke-linejoin="round" stroke-width="5.669"/>
        <path d="M437.091,217.865c-3.183,2.91-6.268,3.133-9.4,6.267s-3.134,9.4,0,12.535" fill="none" stroke="#530094" stroke-linecap="round" stroke-linejoin="round" stroke-width="5.669"/>
        <path d="M437.091,183.394l-3.134,6.267s-7.032.94-9.4,3.134c-1.818,1.683-3.134,9.4-3.134,9.4s-9.018,4.992-9.4,6.268c-.293.979,4.052,6.267,6.268,6.267,3.133,0,12.534-3.134,12.534-3.134,6.268,0,6.268,9.4,9.4,12.535,1.286,1.286,0,9.4-1.046,12.406-2.13,6.124,7.314,9.53,9.927,2.742.955-2.488,3.654-8.881,3.654-15.148" fill="none" stroke="#530094" stroke-linecap="round" stroke-linejoin="round" stroke-width="5.669"/>
      </g>
      <g>
        <polyline points="54.523 240.708 54.523 151.582 30.891 128.306" fill="none" stroke="#530094" stroke-linecap="round" stroke-linejoin="round" stroke-width="5.669"/>
        <line x1="54.523" y1="151.582" x2="68.05" y2="137.504" fill="none" stroke="#530094" stroke-linecap="round" stroke-linejoin="round" stroke-width="5.669"/>
        <path d="M139.948,67.959c0-15.484-16.379-28.06-36.582-28.06a47.631,47.631,0,0,0-5.051.309C89.758,24.055,71.181,12.836,49.577,12.836c-29.707,0-53.788,21.169-53.788,47.282a41.825,41.825,0,0,0,.335,5.162C-17.156,69.488-26.5,79.51-26.5,91.213c0,15.484,16.379,28.06,36.583,28.06a44.029,44.029,0,0,0,21.938-5.643c8.643,6.9,22.473,11.4,38.112,11.4,26.2,0,47.443-12.564,47.443-28.061a17,17,0,0,0-.291-3.053C130.577,89.7,139.948,79.677,139.948,67.959Z" fill="#81fcab" stroke="#530094" stroke-linecap="round" stroke-miterlimit="10" stroke-width="5.669"/>
      </g>
    </g>
  </g>
</svg>
